<?xml version='1.0' encoding='iso-8859-1'?>
<svg version="1.1" xmlns="http://www.w3.org/2000/svg" viewBox="0 0 137.145 137.145" xmlns:xlink="http://www.w3.org/1999/xlink" enable-background="new 0 0 137.145 137.145">
  <g>
    <g>
      <path d="m37.711,89.198l30.861-28.835-10.287-9.612-30.861,28.835 10.287,9.612zm72.004-89.198h-82.286c-15.149,0-27.429,12.281-27.429,27.429v82.287c0,15.148 12.28,27.429 27.429,27.429h82.286c15.149,0 27.429-12.28 27.429-27.429v-82.287c0-15.148-12.28-27.429-27.429-27.429zm13.715,102.858c0,11.361-9.21,20.572-20.572,20.572h-68.572c-11.361,0-20.571-9.211-20.571-20.572v-68.572c0-11.361 9.21-20.572 20.571-20.572h68.572c11.361,0 20.572,9.211 20.572,20.572v68.572zm-65.145-52.107l41.148,38.447 10.287-9.612-41.148-38.446-10.287,9.611z"/>
    </g>
  </g>
</svg>
