<?xml version='1.0' encoding='iso-8859-1'?>
<svg version="1.1" xmlns="http://www.w3.org/2000/svg" viewBox="0 0 26 26" xmlns:xlink="http://www.w3.org/1999/xlink" enable-background="new 0 0 26 26">
  <g>
    <path d="m13,0c-7.2,0-13,5.8-13,13s5.8,13 13,13 13-5.8 13-13-5.8-13-13-13zm0,22c-5,0-9-4-9-9s4-9 9-9 9,4 9,9-4,9-9,9z"/>
    <path d="M18.8,14.4l-5-6C13.6,8.2,13.3,8,13,8s-0.6,0.1-0.8,0.4l-5,6l-0.1,0.1C7,14.7,7,14.8,7,15c0,0.3,0.2,0.7,0.5,0.9l1.7,1   C9.3,17,9.5,17,9.7,17c0.3,0,0.5-0.1,0.7-0.3l1.8-2.1c0.4-0.5,1.1-0.5,1.5,0l1.8,2.1c0.2,0.2,0.4,0.3,0.7,0.3c0.2,0,0.4,0,0.5-0.1   l1.7-1c0.3-0.2,0.5-0.5,0.5-0.9c0-0.2,0-0.3-0.1-0.5C18.8,14.4,18.8,14.4,18.8,14.4z"/>
  </g>
</svg>
